<svg xmlns="http://www.w3.org/2000/svg" width="15.458" height="29.601" viewBox="7.4 0 15.458 29.601"><g data-name="Facebook"><path d="M17.431 29.601V16.117h4.605l.657-5.262h-5.262v-3.29a3.753 3.753 0 0 1 .198-1.314c.261-.694.824-1.18 1.925-1.292a5.053 5.053 0 0 1 .508-.024h2.796V.165c-.607 0-2.052-.14-3.69-.16A31.585 31.585 0 0 0 18.746 0a7.414 7.414 0 0 0-3.526.817c-1.984 1.063-3.217 3.141-3.217 6.09v3.947H7.4v5.262h4.604V29.6h5.427Z" fill="#ceeff1" fill-rule="evenodd" data-name="Path 1"/></g></svg>