<svg xmlns="http://www.w3.org/2000/svg" width="29.6" height="29.6" viewBox="89 0 29.6 29.6"><g data-name="Instagram"><path d="M110.89.21c.396.037.75.095 1.077.166a14.308 14.308 0 0 1 1.535.446 6.368 6.368 0 0 1 1.618.794 7.137 7.137 0 0 1 1.013.85 8.054 8.054 0 0 1 .328.348 6.328 6.328 0 0 1 1.317 2.284 14.62 14.62 0 0 1 .436 1.488c.073.327.133.68.172 1.073a10.674 10.674 0 0 1 .05 1.057c.164 1.48.164 2.137.164 6.084 0 3.947-.164 4.44-.164 6.084a9.6 9.6 0 0 1-.212 2.083 14.307 14.307 0 0 1-.446 1.535 6.368 6.368 0 0 1-.794 1.618 7.137 7.137 0 0 1-.85 1.013 8.054 8.054 0 0 1-.348.328 6.328 6.328 0 0 1-2.284 1.317 14.62 14.62 0 0 1-1.488.436 8.944 8.944 0 0 1-1.073.172 10.674 10.674 0 0 1-1.057.05 38.568 38.568 0 0 1-.216.023c-1.338.141-2.119.141-5.868.141-3.947 0-4.604 0-6.084-.164a9.6 9.6 0 0 1-2.083-.212 14.307 14.307 0 0 1-1.535-.446c-.987-.33-1.81-.822-2.631-1.645a8.054 8.054 0 0 1-.328-.347 6.328 6.328 0 0 1-1.317-2.284c-.252-.755-.503-1.51-.608-2.561a10.674 10.674 0 0 1-.05-1.057 38.568 38.568 0 0 1-.023-.216C89 19.33 89 18.55 89 14.8c0-3.947 0-4.604.164-6.084 0-.72.032-1.313.109-1.836a5.679 5.679 0 0 1 .55-1.782 6.368 6.368 0 0 1 .793-1.618 7.137 7.137 0 0 1 .85-1.013 8.054 8.054 0 0 1 .348-.328A6.328 6.328 0 0 1 94.098.822a14.62 14.62 0 0 1 1.488-.436A8.944 8.944 0 0 1 96.66.214a10.674 10.674 0 0 1 1.057-.05C99.196 0 99.853 0 103.8 0c3.552 0 4.44 0 5.661.12a33.256 33.256 0 0 1 .423.044m-5.027 2.467a2325.243 2325.243 0 0 0-1.057 0 2425.214 2425.214 0 0 0-1.025 0c-3.023.002-3.554.016-4.895.165a9.284 9.284 0 0 0-.549.015c-1.134.068-1.81.332-2.239.475a8.245 8.245 0 0 1-.008.003 2.595 2.595 0 0 0-1.212.66 3.9 3.9 0 0 0-.432.491 5.425 5.425 0 0 0-.707.863 7.454 7.454 0 0 0-.444.781 23.404 23.404 0 0 1-.056.166 7.258 7.258 0 0 0-.413 1.953 9.123 9.123 0 0 0-.024.677c-.149 1.336-.163 1.868-.165 4.863a2325.243 2325.243 0 0 0 0 1.057 135.42 135.42 0 0 0 0 .342c.009 3.219.131 3.985.159 5.115a18.627 18.627 0 0 1 .006.463 9.284 9.284 0 0 0 .015.549c.068 1.134.332 1.81.475 2.239a8.245 8.245 0 0 1 .003.008 10.15 10.15 0 0 0 .077.15 5.745 5.745 0 0 0 1.074 1.494 5.425 5.425 0 0 0 .863.707 7.454 7.454 0 0 0 .781.444c.494.165 1.316.493 2.796.493 1.336.149 1.868.163 4.863.165a2325.243 2325.243 0 0 0 1.057 0 135.42 135.42 0 0 0 .342 0c3.219-.009 3.985-.131 5.115-.159a18.627 18.627 0 0 1 .463-.006 9.284 9.284 0 0 0 .549-.015c1.134-.068 1.81-.332 2.239-.475a8.245 8.245 0 0 1 .008-.003 10.15 10.15 0 0 0 .15-.077 5.745 5.745 0 0 0 1.494-1.074 5.425 5.425 0 0 0 .707-.863 7.454 7.454 0 0 0 .444-.781 23.39 23.39 0 0 1 .056-.166 7.258 7.258 0 0 0 .413-1.953 9.123 9.123 0 0 0 .024-.677 47.274 47.274 0 0 0 .026-.238c.125-1.173.137-1.814.139-4.625a2325.243 2325.243 0 0 0 0-1.057 135.42 135.42 0 0 0 0-.342c-.01-3.635-.165-4.142-.165-5.578a9.284 9.284 0 0 0-.015-.549c-.068-1.134-.332-1.81-.475-2.239a8.245 8.245 0 0 1-.003-.008c-.329-.657-.658-1.15-1.151-1.644a5.425 5.425 0 0 0-.863-.707 7.454 7.454 0 0 0-.781-.444 23.39 23.39 0 0 1-.166-.056 7.258 7.258 0 0 0-1.953-.413 9.123 9.123 0 0 0-.677-.024c-1.336-.149-1.868-.163-4.863-.165ZM103.8 7.236a7.55 7.55 0 0 0-5.29 2.084c-1.413 1.363-2.274 3.292-2.274 5.48 0 4.276 3.453 7.564 7.564 7.564 4.276 0 7.564-3.453 7.564-7.564 0-4.111-3.288-7.564-7.564-7.564Zm-3.345 11.24a4.936 4.936 0 0 0 3.345 1.257 5.447 5.447 0 0 0 .156-.002c1.42-.04 2.66-.636 3.52-1.586a4.936 4.936 0 0 0 1.257-3.345 5.447 5.447 0 0 0-.002-.156c-.078-2.719-2.188-4.777-4.931-4.777a5.447 5.447 0 0 0-.156.002c-2.719.078-4.777 2.188-4.777 4.931a5.447 5.447 0 0 0 .002.156c.04 1.42.636 2.66 1.586 3.52Zm11.238-13.378a1.825 1.825 0 0 0-1.809 1.809 1.825 1.825 0 0 0 1.81 1.809 1.825 1.825 0 0 0 1.808-1.81c0-.986-.822-1.808-1.809-1.808Zm.274-4.722a14.307 14.307 0 0 1 1.535.446" fill="#ceeff1" fill-rule="evenodd" data-name="Path 3"/></g></svg>