<svg xmlns="http://www.w3.org/2000/svg" width="29.992" height="29.926" viewBox="192.607 0 29.992 29.926"><g data-name="XMLID_801_"><path d="M209.613 11.356V10.1a.484.484 0 0 0-.483-.484h-5.766a.484.484 0 0 0-.484.484v19.342c0 .268.216.484.484.484h6.007a.484.484 0 0 0 .484-.484v-9.57c0-3.225.876-4.481 3.124-4.481a3.017 3.017 0 0 1 1.093.18c1.15.443 1.454 1.678 1.528 3.286a25.95 25.95 0 0 1 .022 1.181v9.405c0 .267.217.483.484.483h6.01a.484.484 0 0 0 .483-.483v-10.61c0-4.68-.87-9.463-7.218-9.69a13.39 13.39 0 0 0-.477-.008 7.725 7.725 0 0 0-2.08.277 6.993 6.993 0 0 0-1.995.908 6.625 6.625 0 0 0-1.216 1.036Z" fill="#ceeff1" fill-rule="evenodd" data-name="XMLID_804_"/><path d="M196.58 0a3.975 3.975 0 0 0-3.973 3.969c0 2.19 1.783 3.97 3.974 3.97a3.975 3.975 0 0 0 3.97-3.97A3.974 3.974 0 0 0 196.58 0Z" fill="#ceeff1" fill-rule="evenodd" data-name="XMLID_803_"/><path d="M199.589 9.616h-6.021a.484.484 0 0 0-.484.484v19.342a.484.484 0 0 0 .484.484h6.02a.484.484 0 0 0 .485-.484V10.1a.484.484 0 0 0-.484-.484Z" fill="#ceeff1" fill-rule="evenodd" data-name="XMLID_802_"/></g></svg>